<mxfile host="65bd71144e">
    <diagram id="lgXqqGypwDyo-3Ym20pF" name="第 1 页">
        <mxGraphModel dx="582" dy="259" grid="0" gridSize="10" guides="1" tooltips="1" connect="1" arrows="1" fold="1" page="1" pageScale="1" pageWidth="1169" pageHeight="827" background="none" math="0" shadow="0">
            <root>
                <mxCell id="0"/>
                <mxCell id="1" parent="0"/>
                <mxCell id="2" value="" style="fontStyle=0;verticalAlign=top;align=center;spacingTop=-2;fillColor=none;rounded=0;whiteSpace=wrap;html=1;strokeColor=#919191;strokeWidth=2;dashed=1;container=1;collapsible=0;expand=0;recursiveResize=0;labelBackgroundColor=none;fontFamily=Helvetica;fontSize=18;fontColor=#808080;" parent="1" vertex="1">
                    <mxGeometry x="111" y="255" width="959" height="339" as="geometry"/>
                </mxCell>
                <mxCell id="3" value="&lt;font style=&quot;font-size: 24px;&quot;&gt;技&lt;br&gt;术&lt;br&gt;架&lt;br&gt;构&lt;/font&gt;" style="html=1;shadow=0;dashed=0;shape=mxgraph.bootstrap.rrect;rSize=5;strokeColor=none;strokeWidth=1;fillColor=#009999;fontColor=#FFFFFF;whiteSpace=wrap;align=center;verticalAlign=middle;spacingLeft=0;fontStyle=1;fontSize=14;spacing=5;labelBackgroundColor=none;fontFamily=Helvetica;movable=1;resizable=1;rotatable=1;deletable=1;editable=1;connectable=1;" parent="2" vertex="1">
                    <mxGeometry x="1" width="73" height="339" as="geometry"/>
                </mxCell>
                <mxCell id="4" value="" style="fontStyle=0;verticalAlign=top;align=center;spacingTop=-2;fillColor=none;rounded=0;whiteSpace=wrap;html=1;strokeColor=#919191;strokeWidth=2;dashed=1;container=1;collapsible=0;expand=0;recursiveResize=0;labelBackgroundColor=none;fontFamily=Helvetica;fontSize=20;fontColor=#808080;movable=0;resizable=0;rotatable=0;deletable=0;editable=0;connectable=0;" parent="2" vertex="1">
                    <mxGeometry x="74" y="281" width="885" height="58" as="geometry"/>
                </mxCell>
                <mxCell id="5" value="&lt;font size=&quot;1&quot; style=&quot;&quot;&gt;&lt;b style=&quot;font-size: 16px;&quot;&gt;技术层&lt;/b&gt;&lt;/font&gt;" style="text;html=1;strokeColor=none;fillColor=none;align=center;verticalAlign=middle;whiteSpace=wrap;rounded=0;labelBackgroundColor=none;fontFamily=Helvetica;fontSize=20;fontColor=#808080;" parent="4" vertex="1">
                    <mxGeometry y="14" width="60" height="30" as="geometry"/>
                </mxCell>
                <mxCell id="6" value="Reactor-3" style="html=1;shadow=0;dashed=0;shape=mxgraph.bootstrap.rrect;rSize=5;strokeColor=#33A64C;strokeWidth=1;fillColor=none;fontColor=#33A64C;whiteSpace=wrap;align=center;verticalAlign=middle;spacingLeft=0;fontStyle=0;fontSize=16;spacing=5;labelBackgroundColor=none;fontFamily=Helvetica;" parent="4" vertex="1">
                    <mxGeometry x="62" y="9" width="100" height="40" as="geometry"/>
                </mxCell>
                <mxCell id="7" value="Netty" style="html=1;shadow=0;dashed=0;shape=mxgraph.bootstrap.rrect;rSize=5;strokeColor=#33A64C;strokeWidth=1;fillColor=none;fontColor=#33A64C;whiteSpace=wrap;align=center;verticalAlign=middle;spacingLeft=0;fontStyle=0;fontSize=16;spacing=5;labelBackgroundColor=none;fontFamily=Helvetica;" parent="4" vertex="1">
                    <mxGeometry x="179" y="9" width="100" height="40" as="geometry"/>
                </mxCell>
                <mxCell id="8" value="Caffeine" style="html=1;shadow=0;dashed=0;shape=mxgraph.bootstrap.rrect;rSize=5;strokeColor=#33A64C;strokeWidth=1;fillColor=none;fontColor=#33A64C;whiteSpace=wrap;align=center;verticalAlign=middle;spacingLeft=0;fontStyle=0;fontSize=16;spacing=5;labelBackgroundColor=none;fontFamily=Helvetica;" parent="4" vertex="1">
                    <mxGeometry x="295" y="9" width="100" height="40" as="geometry"/>
                </mxCell>
                <mxCell id="9" value="Reactor-Netty" style="html=1;shadow=0;dashed=0;shape=mxgraph.bootstrap.rrect;rSize=5;strokeColor=#33A64C;strokeWidth=1;fillColor=none;fontColor=#33A64C;whiteSpace=wrap;align=center;verticalAlign=middle;spacingLeft=0;fontStyle=0;fontSize=16;spacing=5;labelBackgroundColor=none;fontFamily=Helvetica;" parent="4" vertex="1">
                    <mxGeometry x="414" y="9" width="100" height="40" as="geometry"/>
                </mxCell>
                <mxCell id="10" value="Spring-3" style="html=1;shadow=0;dashed=0;shape=mxgraph.bootstrap.rrect;rSize=5;strokeColor=#33A64C;strokeWidth=1;fillColor=none;fontColor=#33A64C;whiteSpace=wrap;align=center;verticalAlign=middle;spacingLeft=0;fontStyle=0;fontSize=16;spacing=5;labelBackgroundColor=none;fontFamily=Helvetica;" parent="4" vertex="1">
                    <mxGeometry x="532" y="9" width="100" height="40" as="geometry"/>
                </mxCell>
                <mxCell id="11" value="ScaleCube" style="html=1;shadow=0;dashed=0;shape=mxgraph.bootstrap.rrect;rSize=5;strokeColor=#33A64C;strokeWidth=1;fillColor=none;fontColor=#33A64C;whiteSpace=wrap;align=center;verticalAlign=middle;spacingLeft=0;fontStyle=0;fontSize=16;spacing=5;labelBackgroundColor=none;fontFamily=Helvetica;" parent="4" vertex="1">
                    <mxGeometry x="653" y="9" width="100" height="40" as="geometry"/>
                </mxCell>
                <mxCell id="12" value="&lt;span style=&quot;text-align: left;&quot;&gt;&lt;font style=&quot;font-size: 16px;&quot;&gt;MicroMeter&lt;/font&gt;&lt;/span&gt;" style="html=1;shadow=0;dashed=0;shape=mxgraph.bootstrap.rrect;rSize=5;strokeColor=#33A64C;strokeWidth=1;fillColor=none;fontColor=#33A64C;whiteSpace=wrap;align=center;verticalAlign=middle;spacingLeft=0;fontStyle=0;fontSize=16;spacing=5;labelBackgroundColor=none;fontFamily=Helvetica;" parent="4" vertex="1">
                    <mxGeometry x="773" y="9" width="100" height="40" as="geometry"/>
                </mxCell>
                <mxCell id="13" value="" style="fontStyle=0;verticalAlign=top;align=center;spacingTop=-2;fillColor=none;rounded=0;whiteSpace=wrap;html=1;strokeColor=#919191;strokeWidth=2;dashed=1;container=1;collapsible=0;expand=0;recursiveResize=0;labelBackgroundColor=none;fontFamily=Helvetica;fontSize=16;fontColor=#33A64C;movable=0;resizable=0;rotatable=0;deletable=0;editable=0;connectable=0;" parent="2" vertex="1">
                    <mxGeometry x="73" y="223" width="886" height="58" as="geometry"/>
                </mxCell>
                <mxCell id="14" value="&lt;font color=&quot;#808080&quot;&gt;&lt;b&gt;组件层&lt;/b&gt;&lt;/font&gt;" style="text;html=1;strokeColor=none;fillColor=none;align=center;verticalAlign=middle;whiteSpace=wrap;rounded=0;labelBackgroundColor=none;fontFamily=Helvetica;fontSize=16;fontColor=#33A64C;" parent="13" vertex="1">
                    <mxGeometry y="14" width="60" height="30" as="geometry"/>
                </mxCell>
                <mxCell id="15" value="Meta-Reactor [元反应器]" style="html=1;shadow=0;dashed=0;shape=mxgraph.bootstrap.rrect;rSize=5;strokeColor=none;strokeWidth=1;fillColor=#DB2843;fontColor=#FFFFFF;whiteSpace=wrap;align=center;verticalAlign=middle;spacingLeft=0;fontStyle=0;fontSize=16;spacing=5;labelBackgroundColor=none;fontFamily=Helvetica;" parent="13" vertex="1">
                    <mxGeometry x="62" y="9" width="194" height="40" as="geometry"/>
                </mxCell>
                <mxCell id="16" value="Reactor-Mqtt [MQTT]" style="html=1;shadow=0;dashed=0;shape=mxgraph.bootstrap.rrect;rSize=5;strokeColor=#DB2843;strokeWidth=1;fillColor=none;fontColor=#DB2843;whiteSpace=wrap;align=center;verticalAlign=middle;spacingLeft=0;fontStyle=0;fontSize=16;spacing=5;labelBackgroundColor=none;fontFamily=Helvetica;" parent="13" vertex="1">
                    <mxGeometry x="269" y="9" width="193" height="40" as="geometry"/>
                </mxCell>
                <mxCell id="17" value="Reactor-Coap [COAP]" style="html=1;shadow=0;dashed=0;shape=mxgraph.bootstrap.rrect;rSize=5;strokeColor=#DB2843;strokeWidth=1;fillColor=none;fontColor=#DB2843;whiteSpace=wrap;align=center;verticalAlign=middle;spacingLeft=0;fontStyle=0;fontSize=16;spacing=5;labelBackgroundColor=none;fontFamily=Helvetica;" parent="13" vertex="1">
                    <mxGeometry x="475" y="9" width="193" height="40" as="geometry"/>
                </mxCell>
                <mxCell id="18" value="Reactor-X [扩展反应器]" style="html=1;shadow=0;dashed=0;shape=mxgraph.bootstrap.rrect;rSize=5;strokeColor=#DB2843;strokeWidth=1;fillColor=none;fontColor=#DB2843;whiteSpace=wrap;align=center;verticalAlign=middle;spacingLeft=0;fontStyle=0;fontSize=16;spacing=5;labelBackgroundColor=none;fontFamily=Helvetica;" parent="13" vertex="1">
                    <mxGeometry x="681" y="9" width="193" height="40" as="geometry"/>
                </mxCell>
                <mxCell id="19" value="" style="fontStyle=0;verticalAlign=top;align=center;spacingTop=-2;fillColor=none;rounded=0;whiteSpace=wrap;html=1;strokeColor=#919191;strokeWidth=2;dashed=1;container=1;collapsible=0;expand=0;recursiveResize=0;labelBackgroundColor=none;fontFamily=Helvetica;fontSize=16;fontColor=#808080;movable=0;resizable=0;rotatable=0;deletable=0;editable=0;connectable=0;" parent="2" vertex="1">
                    <mxGeometry x="73" y="169" width="886" height="54" as="geometry"/>
                </mxCell>
                <mxCell id="20" value="&lt;b&gt;容器层&lt;/b&gt;" style="text;html=1;strokeColor=none;fillColor=none;align=center;verticalAlign=middle;whiteSpace=wrap;rounded=0;labelBackgroundColor=none;fontFamily=Helvetica;fontSize=16;fontColor=#808080;" parent="19" vertex="1">
                    <mxGeometry y="12" width="60" height="30" as="geometry"/>
                </mxCell>
                <mxCell id="21" value="Node-Engine [节点引擎]" style="html=1;shadow=0;dashed=0;shape=mxgraph.bootstrap.rrect;rSize=5;strokeColor=none;strokeWidth=1;fillColor=#0085FC;fontColor=#FFFFFF;whiteSpace=wrap;align=center;verticalAlign=middle;spacingLeft=0;fontStyle=0;fontSize=16;spacing=5;labelBackgroundColor=none;fontFamily=Helvetica;" parent="19" vertex="1">
                    <mxGeometry x="63" y="7" width="193" height="40" as="geometry"/>
                </mxCell>
                <mxCell id="22" value="HuaxuEngine [华胥引擎]" style="html=1;shadow=0;dashed=0;shape=mxgraph.bootstrap.rrect;rSize=5;strokeColor=#0085FC;strokeWidth=1;fillColor=none;fontColor=#0085FC;whiteSpace=wrap;align=center;verticalAlign=middle;spacingLeft=0;fontStyle=0;fontSize=16;spacing=5;labelBackgroundColor=none;fontFamily=Helvetica;" parent="19" vertex="1">
                    <mxGeometry x="268" y="7" width="295" height="40" as="geometry"/>
                </mxCell>
                <mxCell id="23" value="SpringEngine [昭节引擎]" style="html=1;shadow=0;dashed=0;shape=mxgraph.bootstrap.rrect;rSize=5;strokeColor=#0085FC;strokeWidth=1;fillColor=none;fontColor=#0085FC;whiteSpace=wrap;align=center;verticalAlign=middle;spacingLeft=0;fontStyle=0;fontSize=16;spacing=5;labelBackgroundColor=none;fontFamily=Helvetica;" parent="19" vertex="1">
                    <mxGeometry x="576" y="7" width="295" height="40" as="geometry"/>
                </mxCell>
                <mxCell id="24" value="" style="fontStyle=0;verticalAlign=top;align=center;spacingTop=-2;fillColor=none;rounded=0;whiteSpace=wrap;html=1;strokeColor=#919191;strokeWidth=2;dashed=1;container=1;collapsible=0;expand=0;recursiveResize=0;labelBackgroundColor=none;fontFamily=Helvetica;fontSize=24;fontColor=#808080;movable=0;resizable=0;rotatable=0;deletable=0;editable=0;connectable=0;" parent="2" vertex="1">
                    <mxGeometry x="74" y="59" width="886" height="110" as="geometry"/>
                </mxCell>
                <mxCell id="25" value="&lt;font color=&quot;#808080&quot;&gt;&lt;b&gt;功能层&lt;/b&gt;&lt;/font&gt;" style="text;html=1;strokeColor=none;fillColor=none;align=center;verticalAlign=middle;whiteSpace=wrap;rounded=0;labelBackgroundColor=none;fontFamily=Helvetica;fontSize=16;fontColor=#000000;" parent="24" vertex="1">
                    <mxGeometry x="-2" y="40" width="60" height="30" as="geometry"/>
                </mxCell>
                <mxCell id="26" value="" style="fontStyle=0;verticalAlign=top;align=center;spacingTop=-2;fillColor=none;rounded=0;whiteSpace=wrap;html=1;strokeColor=#919191;strokeWidth=2;dashed=1;container=1;collapsible=0;expand=0;recursiveResize=0;labelBackgroundColor=none;fontFamily=Helvetica;fontSize=16;fontColor=#808080;movable=0;resizable=0;rotatable=0;deletable=0;editable=0;connectable=0;" parent="24" vertex="1">
                    <mxGeometry x="515" width="371" height="110" as="geometry"/>
                </mxCell>
                <mxCell id="27" value="" style="html=1;shadow=0;dashed=0;shape=mxgraph.bootstrap.rrect;rSize=5;strokeColor=none;strokeWidth=1;fillColor=#CCCCCC;fontColor=#FFFFFF;whiteSpace=wrap;align=center;verticalAlign=middle;spacingLeft=0;fontStyle=0;fontSize=16;spacing=5;labelBackgroundColor=none;fontFamily=Helvetica;points=[[0,0.5,0,0,0]];" parent="26" vertex="1">
                    <mxGeometry x="11" y="12" width="341.5" height="86" as="geometry"/>
                </mxCell>
                <mxCell id="28" value="" style="html=1;shadow=0;dashed=0;align=center;verticalAlign=middle;shape=mxgraph.arrows2.arrow;dy=0.61;dx=10.81;flipH=1;notch=0;labelBackgroundColor=none;strokeColor=#004C99;fontFamily=Helvetica;fontSize=16;fontColor=#ffffff;fillColor=#0066CC;direction=south;" parent="26" vertex="1">
                    <mxGeometry x="173.25" y="-15" width="17" height="31" as="geometry"/>
                </mxCell>
                <mxCell id="29" value="&lt;font style=&quot;font-size: 14px;&quot;&gt;集群管理&lt;/font&gt;" style="html=1;shadow=0;dashed=0;shape=mxgraph.bootstrap.rrect;rSize=5;strokeColor=none;strokeWidth=1;fillColor=#33A64C;fontColor=#FFFFFF;whiteSpace=wrap;align=center;verticalAlign=middle;spacingLeft=0;fontStyle=0;fontSize=16;spacing=5;labelBackgroundColor=none;fontFamily=Helvetica;" parent="26" vertex="1">
                    <mxGeometry x="21" y="19" width="95" height="31" as="geometry"/>
                </mxCell>
                <mxCell id="30" value="自定义扩展" style="html=1;shadow=0;dashed=0;shape=mxgraph.bootstrap.rrect;rSize=5;strokeColor=none;strokeWidth=1;fillColor=#33A64C;fontColor=#FFFFFF;whiteSpace=wrap;align=center;verticalAlign=middle;spacingLeft=0;fontStyle=0;fontSize=16;spacing=5;labelBackgroundColor=none;fontFamily=Helvetica;" parent="26" vertex="1">
                    <mxGeometry x="134.25" y="19" width="95" height="31" as="geometry"/>
                </mxCell>
                <mxCell id="31" value="设备监控" style="html=1;shadow=0;dashed=0;shape=mxgraph.bootstrap.rrect;rSize=5;strokeColor=none;strokeWidth=1;fillColor=#33A64C;fontColor=#FFFFFF;whiteSpace=wrap;align=center;verticalAlign=middle;spacingLeft=0;fontStyle=0;fontSize=16;spacing=5;labelBackgroundColor=none;fontFamily=Helvetica;" parent="26" vertex="1">
                    <mxGeometry x="248" y="19" width="95" height="31" as="geometry"/>
                </mxCell>
                <mxCell id="32" value="连接管理" style="html=1;shadow=0;dashed=0;shape=mxgraph.bootstrap.rrect;rSize=5;strokeColor=none;strokeWidth=1;fillColor=#33A64C;fontColor=#FFFFFF;whiteSpace=wrap;align=center;verticalAlign=middle;spacingLeft=0;fontStyle=0;fontSize=16;spacing=5;labelBackgroundColor=none;fontFamily=Helvetica;" parent="26" vertex="1">
                    <mxGeometry x="21" y="58" width="95" height="31" as="geometry"/>
                </mxCell>
                <mxCell id="33" value="资源管理" style="html=1;shadow=0;dashed=0;shape=mxgraph.bootstrap.rrect;rSize=5;strokeColor=none;strokeWidth=1;fillColor=#33A64C;fontColor=#FFFFFF;whiteSpace=wrap;align=center;verticalAlign=middle;spacingLeft=0;fontStyle=0;fontSize=16;spacing=5;labelBackgroundColor=none;fontFamily=Helvetica;" parent="26" vertex="1">
                    <mxGeometry x="134.25" y="58" width="95" height="31" as="geometry"/>
                </mxCell>
                <mxCell id="34" value="数据接口" style="html=1;shadow=0;dashed=0;shape=mxgraph.bootstrap.rrect;rSize=5;strokeColor=none;strokeWidth=1;fillColor=#33A64C;fontColor=#FFFFFF;whiteSpace=wrap;align=center;verticalAlign=middle;spacingLeft=0;fontStyle=0;fontSize=16;spacing=5;labelBackgroundColor=none;fontFamily=Helvetica;" parent="26" vertex="1">
                    <mxGeometry x="248" y="58" width="95" height="31" as="geometry"/>
                </mxCell>
                <mxCell id="35" value="" style="fontStyle=0;verticalAlign=top;align=center;spacingTop=-2;fillColor=none;rounded=0;whiteSpace=wrap;html=1;strokeColor=#919191;strokeWidth=2;dashed=1;container=1;collapsible=0;expand=0;recursiveResize=0;labelBackgroundColor=none;fontFamily=Helvetica;fontSize=16;fontColor=#808080;movable=0;resizable=0;rotatable=0;deletable=0;editable=0;connectable=0;" parent="24" vertex="1">
                    <mxGeometry x="58" width="457" height="110" as="geometry"/>
                </mxCell>
                <mxCell id="36" value="" style="html=1;shadow=0;dashed=0;shape=mxgraph.bootstrap.rrect;rSize=5;strokeColor=none;strokeWidth=1;fillColor=#CCCCCC;fontColor=#FFFFFF;whiteSpace=wrap;align=center;verticalAlign=middle;spacingLeft=0;fontStyle=0;fontSize=16;spacing=5;labelBackgroundColor=none;fontFamily=Helvetica;" parent="35" vertex="1">
                    <mxGeometry x="10.5" y="12" width="436" height="86" as="geometry"/>
                </mxCell>
                <mxCell id="37" value="" style="html=1;shadow=0;dashed=0;align=center;verticalAlign=middle;shape=mxgraph.arrows2.arrow;dy=0.61;dx=10.81;flipH=1;notch=0;labelBackgroundColor=none;strokeColor=#004C99;fontFamily=Helvetica;fontSize=16;fontColor=#ffffff;fillColor=#0066CC;" parent="35" vertex="1">
                    <mxGeometry x="442" y="49" width="29" height="17" as="geometry"/>
                </mxCell>
                <mxCell id="38" value="" style="html=1;shadow=0;dashed=0;align=center;verticalAlign=middle;shape=mxgraph.arrows2.arrow;dy=0.61;dx=10.81;flipH=1;notch=0;labelBackgroundColor=none;strokeColor=#004C99;fontFamily=Helvetica;fontSize=16;fontColor=#ffffff;fillColor=#0066CC;direction=south;" parent="35" vertex="1">
                    <mxGeometry x="300" y="-13" width="17" height="31" as="geometry"/>
                </mxCell>
                <mxCell id="39" value="" style="html=1;shadow=0;dashed=0;align=center;verticalAlign=middle;shape=mxgraph.arrows2.arrow;dy=0.61;dx=10.81;flipH=1;notch=0;labelBackgroundColor=none;strokeColor=#004C99;fontFamily=Helvetica;fontSize=16;fontColor=#ffffff;fillColor=#0066CC;direction=south;" parent="35" vertex="1">
                    <mxGeometry x="139" y="-13" width="17" height="30" as="geometry"/>
                </mxCell>
                <mxCell id="40" value="&lt;span style=&quot;font-size: 14px;&quot;&gt;MqttBroker&lt;/span&gt;" style="html=1;shadow=0;dashed=0;shape=mxgraph.bootstrap.rrect;rSize=5;strokeColor=none;strokeWidth=1;fillColor=#33A64C;fontColor=#FFFFFF;whiteSpace=wrap;align=center;verticalAlign=middle;spacingLeft=0;fontStyle=0;fontSize=16;spacing=5;labelBackgroundColor=none;fontFamily=Helvetica;" parent="35" vertex="1">
                    <mxGeometry x="21" y="23" width="95" height="31" as="geometry"/>
                </mxCell>
                <mxCell id="41" value="&lt;span style=&quot;font-size: 14px;&quot;&gt;CoapServer&lt;/span&gt;" style="html=1;shadow=0;dashed=0;shape=mxgraph.bootstrap.rrect;rSize=5;strokeColor=none;strokeWidth=1;fillColor=#33A64C;fontColor=#FFFFFF;whiteSpace=wrap;align=center;verticalAlign=middle;spacingLeft=0;fontStyle=0;fontSize=16;spacing=5;labelBackgroundColor=none;fontFamily=Helvetica;" parent="35" vertex="1">
                    <mxGeometry x="129" y="23" width="95" height="31" as="geometry"/>
                </mxCell>
                <mxCell id="42" value="&lt;span style=&quot;font-size: 14px;&quot;&gt;WS子协议&lt;/span&gt;" style="html=1;shadow=0;dashed=0;shape=mxgraph.bootstrap.rrect;rSize=5;strokeColor=none;strokeWidth=1;fillColor=#33A64C;fontColor=#FFFFFF;whiteSpace=wrap;align=center;verticalAlign=middle;spacingLeft=0;fontStyle=0;fontSize=16;spacing=5;labelBackgroundColor=none;fontFamily=Helvetica;" parent="35" vertex="1">
                    <mxGeometry x="237.5" y="23" width="95" height="31" as="geometry"/>
                </mxCell>
                <mxCell id="43" value="&lt;span style=&quot;font-size: 14px;&quot;&gt;ssl/stl加密&lt;/span&gt;" style="html=1;shadow=0;dashed=0;shape=mxgraph.bootstrap.rrect;rSize=5;strokeColor=none;strokeWidth=1;fillColor=#33A64C;fontColor=#FFFFFF;whiteSpace=wrap;align=center;verticalAlign=middle;spacingLeft=0;fontStyle=0;fontSize=16;spacing=5;labelBackgroundColor=none;fontFamily=Helvetica;" parent="35" vertex="1">
                    <mxGeometry x="343" y="23" width="95" height="31" as="geometry"/>
                </mxCell>
                <mxCell id="44" value="&lt;span style=&quot;font-size: 14px;&quot;&gt;数据持久化&lt;/span&gt;" style="html=1;shadow=0;dashed=0;shape=mxgraph.bootstrap.rrect;rSize=5;strokeColor=none;strokeWidth=1;fillColor=#33A64C;fontColor=#FFFFFF;whiteSpace=wrap;align=center;verticalAlign=middle;spacingLeft=0;fontStyle=0;fontSize=16;spacing=5;labelBackgroundColor=none;fontFamily=Helvetica;" parent="35" vertex="1">
                    <mxGeometry x="21" y="59" width="95" height="31" as="geometry"/>
                </mxCell>
                <mxCell id="45" value="&lt;span style=&quot;font-size: 14px;&quot;&gt;规则引擎&lt;/span&gt;" style="html=1;shadow=0;dashed=0;shape=mxgraph.bootstrap.rrect;rSize=5;strokeColor=none;strokeWidth=1;fillColor=#33A64C;fontColor=#FFFFFF;whiteSpace=wrap;align=center;verticalAlign=middle;spacingLeft=0;fontStyle=0;fontSize=16;spacing=5;labelBackgroundColor=none;fontFamily=Helvetica;" parent="35" vertex="1">
                    <mxGeometry x="129" y="59" width="95" height="31" as="geometry"/>
                </mxCell>
                <mxCell id="46" value="&lt;span style=&quot;font-size: 14px;&quot;&gt;消息过滤&lt;/span&gt;" style="html=1;shadow=0;dashed=0;shape=mxgraph.bootstrap.rrect;rSize=5;strokeColor=none;strokeWidth=1;fillColor=#33A64C;fontColor=#FFFFFF;whiteSpace=wrap;align=center;verticalAlign=middle;spacingLeft=0;fontStyle=0;fontSize=16;spacing=5;labelBackgroundColor=none;fontFamily=Helvetica;" parent="35" vertex="1">
                    <mxGeometry x="238" y="59" width="95" height="31" as="geometry"/>
                </mxCell>
                <mxCell id="47" value="拦截器配置" style="html=1;shadow=0;dashed=0;shape=mxgraph.bootstrap.rrect;rSize=5;strokeColor=none;strokeWidth=1;fillColor=#33A64C;fontColor=#FFFFFF;whiteSpace=wrap;align=center;verticalAlign=middle;spacingLeft=0;fontStyle=0;fontSize=16;spacing=5;labelBackgroundColor=none;fontFamily=Helvetica;" parent="35" vertex="1">
                    <mxGeometry x="343" y="59" width="95" height="31" as="geometry"/>
                </mxCell>
                <mxCell id="48" value="" style="fontStyle=0;verticalAlign=top;align=center;spacingTop=-2;fillColor=none;rounded=0;whiteSpace=wrap;html=1;strokeColor=#919191;strokeWidth=2;dashed=1;container=1;collapsible=0;expand=0;recursiveResize=0;labelBackgroundColor=none;fontFamily=Helvetica;fontSize=24;fontColor=#808080;movable=0;resizable=0;rotatable=0;deletable=0;editable=0;connectable=0;" parent="2" vertex="1">
                    <mxGeometry x="75" width="885" height="59" as="geometry"/>
                </mxCell>
                <mxCell id="49" value="&lt;font color=&quot;#000000&quot;&gt;&lt;b&gt;MQTT/COAP&lt;/b&gt;&lt;/font&gt;" style="html=1;shadow=0;dashed=0;shape=mxgraph.bootstrap.rrect;rSize=5;strokeColor=none;strokeWidth=1;fillColor=#FFBC26;fontColor=#FFFFFF;whiteSpace=wrap;align=center;verticalAlign=middle;spacingLeft=0;fontStyle=0;fontSize=16;spacing=5;labelBackgroundColor=none;fontFamily=Helvetica;" parent="48" vertex="1">
                    <mxGeometry x="64" y="9.5" width="120" height="40" as="geometry"/>
                </mxCell>
                <mxCell id="50" value="&lt;font size=&quot;1&quot; style=&quot;&quot;&gt;&lt;b style=&quot;font-size: 16px;&quot;&gt;协议层&lt;/b&gt;&lt;/font&gt;" style="text;html=1;strokeColor=none;fillColor=none;align=center;verticalAlign=middle;whiteSpace=wrap;rounded=0;labelBackgroundColor=none;fontFamily=Helvetica;fontSize=24;fontColor=#808080;" parent="48" vertex="1">
                    <mxGeometry x="1" y="14.5" width="60" height="30" as="geometry"/>
                </mxCell>
                <mxCell id="51" value="&lt;b&gt;&lt;font color=&quot;#000000&quot;&gt;WebSocket&lt;/font&gt;&lt;/b&gt;" style="html=1;shadow=0;dashed=0;shape=mxgraph.bootstrap.rrect;rSize=5;strokeColor=none;strokeWidth=1;fillColor=#FFBC26;fontColor=#FFFFFF;whiteSpace=wrap;align=center;verticalAlign=middle;spacingLeft=0;fontStyle=0;fontSize=16;spacing=5;labelBackgroundColor=none;fontFamily=Helvetica;" parent="48" vertex="1">
                    <mxGeometry x="225" y="9.5" width="120" height="40" as="geometry"/>
                </mxCell>
                <mxCell id="52" value="&lt;font color=&quot;#000000&quot;&gt;&lt;b&gt;SSL/TSL&lt;/b&gt;&lt;/font&gt;" style="html=1;shadow=0;dashed=0;shape=mxgraph.bootstrap.rrect;rSize=5;strokeColor=none;strokeWidth=1;fillColor=#FFBC26;fontColor=#FFFFFF;whiteSpace=wrap;align=center;verticalAlign=middle;spacingLeft=0;fontStyle=0;fontSize=16;spacing=5;labelBackgroundColor=none;fontFamily=Helvetica;" parent="48" vertex="1">
                    <mxGeometry x="386" y="9.5" width="120" height="40" as="geometry"/>
                </mxCell>
                <mxCell id="53" value="&lt;font color=&quot;#000000&quot;&gt;&lt;b&gt;HTTP&lt;/b&gt;&lt;/font&gt;" style="html=1;shadow=0;dashed=0;shape=mxgraph.bootstrap.rrect;rSize=5;strokeColor=none;strokeWidth=1;fillColor=#FFBC26;fontColor=#FFFFFF;whiteSpace=wrap;align=center;verticalAlign=middle;spacingLeft=0;fontStyle=0;fontSize=16;spacing=5;labelBackgroundColor=none;fontFamily=Helvetica;" parent="48" vertex="1">
                    <mxGeometry x="549" y="9.5" width="120" height="40" as="geometry"/>
                </mxCell>
                <mxCell id="54" value="&lt;font color=&quot;#000000&quot;&gt;&lt;b&gt;QUIC&lt;/b&gt;&lt;/font&gt;" style="html=1;shadow=0;dashed=0;shape=mxgraph.bootstrap.rrect;rSize=5;strokeColor=none;strokeWidth=1;fillColor=#FFBC26;fontColor=#FFFFFF;whiteSpace=wrap;align=center;verticalAlign=middle;spacingLeft=0;fontStyle=0;fontSize=16;spacing=5;labelBackgroundColor=none;fontFamily=Helvetica;" parent="48" vertex="1">
                    <mxGeometry x="723" y="9.5" width="120" height="40" as="geometry"/>
                </mxCell>
            </root>
        </mxGraphModel>
    </diagram>
</mxfile>